<svg id="Capa_1" data-name="Capa 1" xmlns="http://www.w3.org/2000/svg" viewBox="0 0 389.76 307.72"><defs><style>.cls-1{fill:#ac61aa;}</style></defs><path class="cls-1" d="M358.24,75.9H217.68l-28-33.16A4.81,4.81,0,0,0,186,41H72.64A31.52,31.52,0,0,0,41.12,72.54v9.2h-9.6A31.52,31.52,0,0,0,0,113.22v204a31.52,31.52,0,0,0,31.52,31.52h285.6a31.52,31.52,0,0,0,31.52-31.52V308h9.6a31.52,31.52,0,0,0,31.52-31.52V107.42A31.52,31.52,0,0,0,358.24,75.9ZM338.88,298.54v18.88a21.84,21.84,0,0,1-21.8,21.8H31.52a21.84,21.84,0,0,1-21.8-21.8v-204a21.84,21.84,0,0,1,21.8-21.8H142.88l28,33.16a4.81,4.81,0,0,0,3.72,1.72H317.4a21.85,21.85,0,0,1,21.48,21.64ZM380,276.74a21.84,21.84,0,0,1-21.8,21.8h-9.6V148.14a31.52,31.52,0,0,0-31.52-31.52H176.56l-28-33.16a4.81,4.81,0,0,0-3.72-1.72h-94v-9.2a21.84,21.84,0,0,1,21.8-21.8h111.2l28,33.16a4.81,4.81,0,0,0,3.72,1.72H358.4a21.84,21.84,0,0,1,21.8,21.8Z" transform="translate(0 -41.02)"/></svg>