<svg id="Icons" xmlns="http://www.w3.org/2000/svg" viewBox="0 0 364.7 484.32"><defs><style>.cls-1{fill:#ac61aa;}</style></defs><path class="cls-1" d="M361,498.16H151a22.75,22.75,0,0,1-22.79-20.88L97.59,125l13.8-1.17L142,476.1a9,9,0,0,0,9,8.22H361a9,9,0,0,0,9-8.25l30.62-352.22,13.78,1.2L383.78,477.27A22.75,22.75,0,0,1,361,498.16Z" transform="translate(-73.65 -13.84)"/><path class="cls-1" d="M431.43,131.34H80.57a6.92,6.92,0,0,1-6.92-6.92V100.5a38.86,38.86,0,0,1,38.81-38.82H399.54a38.86,38.86,0,0,1,38.81,38.82v23.92a6.92,6.92,0,0,1-6.92,6.92ZM87.48,117.5h337v-17a25,25,0,0,0-25-25H112.46a25,25,0,0,0-25,25Z" transform="translate(-73.65 -13.84)"/><path class="cls-1" d="M319.8,75.52H192.2a6.92,6.92,0,0,1-6.92-6.92V52.65A38.85,38.85,0,0,1,224.1,13.84h63.8a38.85,38.85,0,0,1,38.81,38.81V68.57a6.91,6.91,0,0,1-6.88,7ZM199.13,61.68H312.88v-9a25,25,0,0,0-25-25H224.1a25,25,0,0,0-25,25Z" transform="translate(-73.65 -13.84)"/><path class="cls-1" d="M312.94,437.15,329,178l13.81.85L326.75,438Z" transform="translate(-73.65 -13.84)"/><path class="cls-1" d="M249.08,178.25h13.84V437.42H249.08Z" transform="translate(-73.65 -13.84)"/><path class="cls-1" d="M169.26,178.72l13.81-.84L198.91,437l-13.81.85Z" transform="translate(-73.65 -13.84)"/></svg>