<?xml version="1.0" encoding="utf-8"?>
<!-- Generator: Adobe Illustrator 24.2.3, SVG Export Plug-In . SVG Version: 6.00 Build 0)  -->
<svg version="1.1" id="Capa_1" xmlns="http://www.w3.org/2000/svg" xmlns:xlink="http://www.w3.org/1999/xlink" x="0px" y="0px"
	 viewBox="0 0 469.7 469.7" style="enable-background:new 0 0 469.7 469.7;" xml:space="preserve">
<style type="text/css">
	.st0{fill:#AC61AA;}
</style>
<g>
	<g>
		<path class="st0" d="M426.2,115.2c0-0.5-0.1-1-0.3-1.5c-0.1-0.2-0.1-0.4-0.2-0.6c-0.3-0.6-0.7-1.2-1.2-1.7L314.9,1.7
			c-0.5-0.5-1.1-0.9-1.7-1.2c-0.2-0.1-0.4-0.1-0.6-0.2c-0.5-0.2-1-0.3-1.5-0.3c-0.1,0-0.2-0.1-0.4-0.1H136.5c-3.3,0-6,2.7-6,6v91.9
			H49.4c-3.3,0-6,2.7-6,6v360c0,3.3,2.7,6,6,6h283.8c3.3,0,6-2.7,6-6v-91.9h81.1c3.3,0,6-2.7,6-6V115.6
			C426.3,115.5,426.2,115.4,426.2,115.2z M405.9,109.7h-89.3V20.4L405.9,109.7z M327.3,457.8H55.4v-348h81.1h81.1v103.7
			c0,3.3,2.7,6,6,6h103.7v146.5L327.3,457.8L327.3,457.8z M229.5,118.2l89.3,89.3h-89.3L229.5,118.2L229.5,118.2z M339.2,360V213.4
			c0-0.1-0.1-0.3-0.1-0.4c0-0.5-0.1-1-0.3-1.5c-0.1-0.2-0.1-0.4-0.2-0.6c-0.3-0.6-0.7-1.2-1.2-1.7L227.8,99.6
			c-0.5-0.5-1.1-0.9-1.7-1.2c-0.2-0.1-0.4-0.1-0.6-0.2c-0.5-0.2-1-0.3-1.5-0.3c-0.1,0-0.2-0.1-0.4-0.1h-81.1V11.9h162.2v103.7
			c0,3.3,2.7,6,6,6h103.7V360L339.2,360L339.2,360z"/>
		<polygon class="st0" points="197.3,235.3 185.3,235.3 185.3,277.8 142.8,277.8 142.8,289.7 185.3,289.7 185.3,332.2 197.3,332.2 
			197.3,289.7 239.8,289.7 239.8,277.8 197.3,277.8 		"/>
	</g>
</g>
</svg>
