<?xml version="1.0" encoding="utf-8"?>
<!-- Generator: Adobe Illustrator 24.2.3, SVG Export Plug-In . SVG Version: 6.00 Build 0)  -->
<svg version="1.1" id="Capa_1" xmlns="http://www.w3.org/2000/svg" xmlns:xlink="http://www.w3.org/1999/xlink" x="0px" y="0px"
	 viewBox="0 0 512 512" style="enable-background:new 0 0 512 512;" xml:space="preserve">
<style type="text/css">
	.st0{fill:#AC61AA;}
</style>
<path class="st0" d="M256,512C114.8,512,0,397.2,0,256S114.8,0,256,0s256,114.8,256,256S397.2,512,256,512z M256,32
	C132.5,32,32,132.5,32,256s100.5,224,224,224s224-100.5,224-224S379.5,32,256,32z"/>
<path class="st0" d="M176.8,351.2c-4.1,0-8.2-1.6-11.3-4.7c-6.2-6.2-6.2-16.4,0-22.6l158.4-158.4c6.3-6.2,16.4-6.2,22.6,0
	s6.2,16.4,0,22.6L188.1,346.5C185,349.6,180.9,351.2,176.8,351.2z"/>
<path class="st0" d="M335.2,351.2c-4.1,0-8.2-1.6-11.3-4.7L165.5,188.1c-6.3-6.2-6.3-16.4,0-22.6c6.2-6.3,16.4-6.3,22.6,0
	l158.4,158.4c6.3,6.2,6.3,16.4,0,22.6C343.4,349.6,339.3,351.2,335.2,351.2z"/>
</svg>
